<svg xmlns="http://www.w3.org/2000/svg" version="1.1" xmlns:xlink="http://www.w3.org/1999/xlink" xmlns:svgjs="http://svgjs.dev/svgjs" width="1500" height="1500" viewBox="0 0 1500 1500"><rect width="1500" height="1500" fill="#ffffff"></rect><g transform="matrix(0.6666666666666666,0,0,0.6666666666666666,250.00007343750008,187.66666666666674)"><svg viewBox="0 0 320 360" data-background-color="#ffffff" preserveAspectRatio="xMidYMid meet" height="1687" width="1500" xmlns="http://www.w3.org/2000/svg" xmlns:xlink="http://www.w3.org/1999/xlink"><g id="tight-bounds" transform="matrix(1,0,0,1,0.000023499999997511622,0)"><svg viewBox="0 0 320 360" height="360" width="320"><g><svg></svg></g><g><svg viewBox="0 0 320 360" height="360" width="320"><g><path transform="translate(-74.99272,-51.79039) scale(4.65793,4.65793)" d="M20.6 59.9l0.8 1-0.4-1.3c-0.1-0.6-0.8 0.1-0.4 0.3M21.5 59.3c0.3 0.5 0.6 1 0.6 1.5 0 0.7 0.6 1 1.1 1.2-0.7-0.8-1.1-3-1.7-2.7M59.9 16.9c1.7 0 3.3-0.2 5.1 0.2 4.4 1.1 8.1 3.3 10.6 6.4l7 11.2c0.3 2.8 0.9 5.9 0.8 9.3 0.7 0 0.6-1 1.4-1.2-0.8 2-1.2 4.5-1.4 7.4-0.5-1.6 0-4 0.1-5.3-0.7 1.1-1.1 0.3-1.1-0.2 0.1-0.8-0.3-0.7-0.6-1-1.1-1-1.8-2.1-2.6-3.8 0.5-1.3 0.6-3.2-1-4.2-0.5-0.3-1.1-0.8-1.4-1.6-0.4-1.1-1.1-2.4-0.9-4.1 0.1-0.5-1.5 1.1-2.4 0.4-3.9-2.7-7.8-5.8-12.5-8.4-2.5 0-4.3-0.9-5.2-2-0.8-1-0.2-2.3 1-2.4 0.7 0 1.5-0.2 2.1 0.2 0.1-0.4 0.5-0.9 1-0.9M50 14.6l0.2 0.1c1 0.2 1.5 1.6 2.6 1.1 0 0.7 0.1 1.4-0.1 1.9-0.3 0.8-1.2 0.8-1.9 0.8-6.7-0.4-10.6 2.4-14.7 4.8-1.1 0.7-2.3 1.2-3.2 2.1-4.3 4-9 7.7-10.1 15.1l-0.9 8.2c-0.1 0.9-1.1 1.8-0.9 2.9l0.7 4.9c-0.7-0.7-1.1 0.2-0.9 0.6 0.1 0.3 0.5 1.3 1.1 0.4 0.8 1.5 1.6 4.4 2.7 5.7 3.4 4 7.8 7.6 11.4 11.2 0.9-0.2 1.6-0.2 1.8-0.8 0.3 0.6-0.3 1.2-0.8 1.3 1.6 1 3.4 1.9 5.8 2.1 3.1 0.2 6 0.7 8.7 1.4 1.4-0.4 2.8-0.6 4.3-0.7 0.5 0 0.8-0.8 1.4-1l0.1-1c0.6 0.9 0.5-0.3 0.1-0.9 0.7 0.6 0.9 1.1 1.2 1.5 0-0.3 0.8-1.4 0.8-0.1l0.2-1.3c0.3-0.2 0.4 1.1 0.7 0.2 0.3-0.9 0.9-0.2 1.5-0.5-0.2 0.4-0.1 1.2 0.6 0.7l0.8-0.7c0.5 1.2 1.3 0.7 1.7 0.5 4.4-2.8 8.8-6.1 13-9.4l-0.1 1.3 0.5-1.6c0.5 0.5 0.9 0.1 1.1-0.2 0.6-1 1.4-2 2.7-2.9-1.6 4.3-3.5 7.7-5.9 10.5l-1 1.2c0 0.7-0.2 1.6-1 1.7-0.4 0.1-1.2-0.2-1.8 0.4-0.3 0.4 0.7 1.2-0.1 0.6-0.7-0.5-1.4 0-2.2 0.2-0.6 0.2 0.4 0.8 0.6 1.2 0.2 0.4 0.4 0.8 0.3 1.3l-1.1-1.2c-1.3 0.7-2.1 2-3.2 3-0.5 0.4-0.3 1.1-0.3 1.7-0.7 0-1.5-0.2-1.9 0.2-0.3 0.4-0.2 1-0.2 1.6-1-0.1-1.1-1.6-2-1.3-0.9 0.2-1.9 0.3-2.7 0.8 0.6 1.2-1 0.5-0.8 0.7-1.5-0.9-2.8-1.6-4.4-1-3.4-1.1-7.6-0.6-10.7-0.2 0-0.5 0.1-1-0.1-1.1-0.2 0.5-0.8 0.3-0.7 0.3-1.9-1.3-3.8-2.1-5.8-3.2-1.8 0.2-3.5-0.7-4-1.2-1.4-1.3-3-0.6-4.3-0.9-2.8-0.7-3.8-3.6-4.1-5.6-0.2-1-1-1.4-1.3-1.3-1.3-4.2-3.3-8-4.9-11.9-0.4-1-0.3-2-0.3-3.1 0.5 0.2 1 0.1 0.9-0.6-0.5-3.3-1.7-5.8-3-8.2 0.7-3.4 0.8-7.4 2.4-10.4 1.4-2.7 4-4.1 5.8-6.4 0.6-0.8 0.6-1.9 1.2-2.6 2-2 4-4.1 6.2-5.9 1-0.8 2.2 0 3.7-0.3 0.5-1.8 2.5-3.4 4.4-2.9 0.8 0.2 2.4-1.9 2.9-2.1 0.8-0.3 0.4 0.8 0.4 1.5 1.9-1.5 4.5-2.3 6.9-3.2" fill="#000000" fill-rule="nonzero" stroke="none" stroke-width="1" stroke-linecap="butt" stroke-linejoin="miter" stroke-miterlimit="10" stroke-dasharray="" stroke-dashoffset="0" font-family="none" font-weight="none" font-size="none" text-anchor="none" style="mix-blend-mode: normal" data-fill-palette-color="tertiary"></path></g><g transform="matrix(1,0,0,1,64,150.95507417249365)"><svg viewBox="0 0 192 58.08985165501272" height="58.08985165501272" width="192"><g><svg viewBox="0 0 192 58.08985165501272" height="58.08985165501272" width="192"><g transform="matrix(1,0,0,1,0,35.110580262750645)"><svg viewBox="0 0 192 22.979271392262074" height="22.979271392262074" width="192"><g id="textblocktransform"><svg viewBox="0 0 192 22.979271392262074" height="22.979271392262074" width="192" id="textblock"><g><svg viewBox="0 0 192 22.979271392262074" height="22.979271392262074" width="192"><g transform="matrix(1,0,0,1,0,0)"><svg width="192" viewBox="1.1 -41.04 432.21 51.73" height="22.979271392262074" data-palette-color="#4d7e3e"><path d="M10.4 0.49L10.4 0.49Q9.59 0.49 8.61 0.01 7.62-0.46 6.68-1.11 5.74-1.76 5.03-2.33 4.32-2.91 4.08-3.1L4.08-3.1Q3.05-3.98 2.86-4.55 2.66-5.13 2.81-5.82 2.95-6.52 2.95-7.79L2.95-7.79Q2.95-10.06 2.78-12.65 2.61-15.23 2.29-17.53 1.98-19.82 1.49-21.22L1.49-21.22Q1.32-21.73 1.21-22.09 1.1-22.46 1.1-22.71L1.1-22.71Q1.1-23.41 1.93-24.3 2.76-25.2 3.8-25.99 4.83-26.78 5.47-27.15L5.47-27.15Q6.1-27.54 7.18-28.06 8.25-28.59 9.38-28.99 10.5-29.39 11.25-29.39L11.25-29.39Q11.99-29.39 13.07-28.92 14.16-28.44 15.21-27.88 16.26-27.32 16.87-27.03L16.87-27.03 21.41-25.85Q21.73-23.73 21.28-21.9 20.83-20.07 20-18.68 19.17-17.29 18.31-16.44 17.46-15.6 16.99-15.45L16.99-15.45Q15.14-16.55 13.78-18.36 12.43-20.17 11.28-21.7L11.28-21.7Q11.47-19.95 11.49-17.38 11.5-14.82 11.3-12.15 11.11-9.47 10.64-7.32L10.64-7.32 11.11-6.93Q11.69-7.18 13.01-7.82 14.33-8.47 15.92-9.28 17.5-10.08 18.87-10.82L18.87-10.82 21.34-7.08Q20.9-6.3 19.7-5.04 18.51-3.78 16.88-2.51 15.26-1.25 13.55-0.38 11.84 0.49 10.4 0.49ZM36.01 0.49L36.01 0.49Q34.79 0.37 33.2 0.01 31.61-0.34 30.01-0.87 28.42-1.39 27.1-2.03 25.78-2.66 25.12-3.32L25.12-3.32Q24.24-8.91 23.74-14.21 23.24-19.51 24-24.56L24-24.56Q24.53-25.24 25.93-26.03 27.32-26.81 29.05-27.53 30.78-28.25 32.37-28.76 33.96-29.27 34.89-29.39L34.89-29.39Q36.94-29.2 39.24-28.43 41.55-27.66 43.55-26.53 45.55-25.39 46.63-24.1L46.63-24.1Q46.87-23 46.95-21.79 47.02-20.58 47.02-18.53L47.02-18.53Q47.02-16.11 46.73-13.28 46.43-10.45 45.99-7.93 45.55-5.42 45.14-3.91L45.14-3.91Q44.68-3.37 43.43-2.59 42.19-1.81 41.14-1.27L41.14-1.27Q39.57-0.49 38.39-0.06 37.2 0.37 36.01 0.49ZM36.55-5.37L36.55-5.37 37.89-6.3Q38.01-7.64 38.05-9 38.08-10.35 38.08-11.72L38.08-11.72Q38.08-13.57 37.99-15.5 37.89-17.43 37.67-19.53L37.67-19.53 33.91-21.07 32.44-20.36Q32.15-17.43 32.15-14.48L32.15-14.48Q32.15-12.67 32.24-10.83 32.32-8.98 32.49-7.13L32.49-7.13Q33.25-6.64 34.26-6.14 35.28-5.64 36.55-5.37ZM57.03 0.49L57.03 0.49Q55.15 0.49 53.36-0.09 51.58-0.66 50.65-1.68L50.65-1.68Q51.02-3.66 51.25-4.75 51.48-5.83 51.74-6.73 52-7.62 52.36-8.98L52.36-8.98Q51.92-9.96 51.41-11.89 50.9-13.82 50.39-16.1 49.87-18.38 49.48-20.53 49.09-22.68 48.87-24.16 48.65-25.63 48.7-25.9L48.7-25.9Q49.29-26.88 50.52-27.56 51.75-28.25 53.23-28.6 54.71-28.96 56.03-28.96L56.03-28.96Q58.44-28.96 59.59-27.95L59.59-27.95 57.81-12.62 58.44-12.55 62.47-28.56Q63.33-28.91 64.28-28.89 65.23-28.88 66.28-28.88L66.28-28.88Q67.65-28.88 69.5-28.44 71.36-28 72.92-27L72.92-27Q73.09-24.66 72.85-22.53 72.6-20.41 72.15-18.2 71.7-15.99 71.24-13.4L71.24-13.4 71.94-13.26 76.58-28.47Q76.97-28.59 77.51-28.72 78.05-28.86 79.1-28.88L79.1-28.88Q79.98-28.91 81.44-28.69 82.91-28.47 84.61-27.82 86.32-27.17 87.93-25.85L87.93-25.85Q87.81-22.73 86.98-18.01 86.15-13.28 83.98-7.59L83.98-7.59 88.13-9.77 90.3-6.81Q89.79-5.25 88.74-3.55 87.69-1.86 86.35-0.68 85 0.49 83.59 0.49L83.59 0.49Q82.44 0.49 81.15-0.16 79.85-0.81 78.95-1.76L78.95-1.76Q78.1-2.66 77.73-3.48 77.36-4.3 77.44-5.47L77.44-5.47Q77.63-9.01 77.88-12.32 78.12-15.63 78.36-18.65L78.36-18.65 77.78-18.77Q76.95-17.16 75.86-15.23 74.78-13.31 73.85-11.58 72.92-9.86 72.5-8.86L72.5-8.86Q73.31-6.52 73.54-4.76 73.77-3 73.95-0.76L73.95-0.76Q73.12-0.12 71.98 0.18 70.84 0.49 69.65 0.49L69.65 0.49Q67.99 0.49 66.44-0.06 64.89-0.61 64.03-1.59L64.03-1.59Q64.25-3.83 64.52-5.07 64.79-6.3 65.06-7.13 65.33-7.96 65.52-8.94L65.52-8.94 64.77-18.9 64.18-18.99Q63.69-17.99 63.01-16.58 62.32-15.16 61.6-13.66 60.88-12.16 60.26-10.86 59.64-9.57 59.3-8.79L59.3-8.79Q59.91-7.01 60.49-5.07 61.08-3.13 61.35-0.66L61.35-0.66Q60.54-0.07 59.39 0.21 58.25 0.49 57.03 0.49ZM98.63 0.49L98.63 0.49Q96.75 0.49 94.96-0.09 93.18-0.66 92.25-1.68L92.25-1.68Q92.62-3.66 92.85-4.75 93.08-5.83 93.34-6.73 93.6-7.62 93.96-8.98L93.96-8.98Q93.52-9.96 93.01-11.89 92.5-13.82 91.98-16.1 91.47-18.38 91.08-20.53 90.69-22.68 90.47-24.16 90.25-25.63 90.3-25.9L90.3-25.9Q90.89-26.88 92.12-27.56 93.35-28.25 94.83-28.6 96.31-28.96 97.62-28.96L97.62-28.96Q100.04-28.96 101.19-27.95L101.19-27.95 99.41-12.62 100.04-12.55 104.07-28.56Q104.92-28.91 105.88-28.89 106.83-28.88 107.88-28.88L107.88-28.88Q109.25-28.88 111.1-28.44 112.96-28 114.52-27L114.52-27Q114.69-24.66 114.45-22.53 114.2-20.41 113.75-18.2 113.3-15.99 112.83-13.4L112.83-13.4 113.54-13.26 118.18-28.47Q118.57-28.59 119.11-28.72 119.65-28.86 120.7-28.88L120.7-28.88Q121.57-28.91 123.04-28.69 124.5-28.47 126.21-27.82 127.92-27.17 129.53-25.85L129.53-25.85Q129.41-22.73 128.58-18.01 127.75-13.28 125.58-7.59L125.58-7.59 129.73-9.77 131.9-6.81Q131.39-5.25 130.34-3.55 129.29-1.86 127.95-0.68 126.6 0.49 125.19 0.49L125.19 0.49Q124.04 0.49 122.75-0.16 121.45-0.81 120.55-1.76L120.55-1.76Q119.69-2.66 119.33-3.48 118.96-4.3 119.04-5.47L119.04-5.47Q119.23-9.01 119.47-12.32 119.72-15.63 119.96-18.65L119.96-18.65 119.38-18.77Q118.55-17.16 117.46-15.23 116.37-13.31 115.45-11.58 114.52-9.86 114.1-8.86L114.1-8.86Q114.91-6.52 115.14-4.76 115.37-3 115.54-0.76L115.54-0.76Q114.71-0.12 113.58 0.18 112.44 0.49 111.25 0.49L111.25 0.49Q109.59 0.49 108.04-0.06 106.49-0.61 105.63-1.59L105.63-1.59Q105.85-3.83 106.12-5.07 106.39-6.3 106.66-7.13 106.93-7.96 107.12-8.94L107.12-8.94 106.36-18.9 105.78-18.99Q105.29-17.99 104.61-16.58 103.92-15.16 103.2-13.66 102.48-12.16 101.86-10.86 101.24-9.57 100.9-8.79L100.9-8.79Q101.51-7.01 102.09-5.07 102.68-3.13 102.95-0.66L102.95-0.66Q102.14-0.07 100.99 0.21 99.85 0.49 98.63 0.49ZM139.66 0.49L139.66 0.49Q138.98 0.49 138.34 0.13 137.71-0.22 136.98-0.76L136.98-0.76Q136.39-1.2 135.59-1.68 134.78-2.17 134.18-2.75 133.58-3.32 133.58-3.96L133.58-3.96 135.63-13.99 131.85-24.51Q132.53-26.2 133.99-27.2 135.44-28.2 137.16-28.64 138.88-29.08 140.37-29.08L140.37-29.08Q142.03-29.08 142.91-28.66L142.91-28.66Q143.03-27.32 143.09-25.82 143.15-24.32 143.15-22.73L143.15-22.73Q143.15-19.14 142.89-15.82 142.62-12.5 141.91-9.16L141.91-9.16 142.64-8.81Q143.32-9.47 144.14-10.82 144.96-12.16 145.74-13.71 146.52-15.26 147.1-16.61 147.67-17.97 147.84-18.65L147.84-18.65Q147.55-22.14 147.4-24.07 147.26-26 147.19-26.89 147.13-27.78 147.13-28.17L147.13-28.17Q147.52-28.44 148.67-28.65 149.82-28.86 151.24-28.86L151.24-28.86Q155.51-28.86 158-25.9L158-25.9 158-25.63Q158-24.78 157.67-22.64 157.34-20.51 156.75-17.76 156.17-15.01 155.41-12.29 154.65-9.57 153.8-7.52L153.8-7.52 158.02-9.77 160.1-6.81Q159.27-4.88 158.18-3.21 157.09-1.54 155.82-0.52 154.56 0.49 153.14 0.49L153.14 0.49Q151.99 0.49 150.69-0.18 149.38-0.85 148.38-1.95L148.38-1.95Q147.99-2.39 147.55-2.94 147.11-3.49 147.11-4.71L147.11-4.71Q147.11-4.88 147.12-5.05 147.13-5.22 147.16-5.4L147.16-5.4Q147.35-7.25 147.55-8.79 147.74-10.33 147.99-11.96L147.99-11.96 147.62-12.13Q147.01-10.55 146.06-8.41 145.11-6.27 144.01-4.24 142.91-2.2 141.79-0.85 140.66 0.49 139.66 0.49ZM168.84 0.49L168.84 0.49Q167.27 0.49 165.45-0.04 163.63-0.56 162.71-1.61L162.71-1.61Q163.05-3.59 163.32-4.86 163.59-6.13 163.84-7.07 164.1-8.01 164.42-8.98L164.42-8.98Q164.05-9.84 163.57-11.62 163.1-13.4 162.6-15.6 162.1-17.8 161.67-19.92 161.24-22.05 160.99-23.63 160.73-25.22 160.73-25.73L160.73-25.73Q160.73-25.78 160.74-25.83 160.75-25.88 160.75-25.9L160.75-25.9Q161.34-26.88 162.57-27.53 163.81-28.17 165.28-28.49 166.76-28.81 168.08-28.81L168.08-28.81Q169.23-28.81 170.14-28.61 171.06-28.42 171.62-27.91L171.62-27.91 169.84-12.62 170.23-12.55Q171.45-16.55 172.41-20.56 173.38-24.56 175.01-28.44L175.01-28.44Q175.72-28.66 176.55-28.74 177.38-28.81 178.26-28.81L178.26-28.81Q180.63-28.81 182.9-28.05 185.17-27.29 186.83-25.34L186.83-25.34Q186.83-23.78 186.52-21.59 186.22-19.41 185.68-16.94 185.14-14.48 184.42-12.05 183.7-9.62 182.87-7.59L182.87-7.59 187.02-9.77 189.2-6.81Q188.68-5.25 187.63-3.55 186.58-1.86 185.24-0.68 183.9 0.49 182.48 0.49L182.48 0.49Q181.34 0.49 180.04-0.16 178.75-0.81 177.84-1.76L177.84-1.76Q176.99-2.66 176.65-3.44 176.31-4.22 176.35-5.4L176.35-5.4 176.97-18.85 176.26-19.07Q175.06-16.46 173.89-13.96 172.72-11.47 171.35-8.79L171.35-8.79Q171.96-7.01 172.46-5.04 172.96-3.08 173.4-0.59L173.4-0.59Q172.57 0 171.42 0.24 170.28 0.49 168.84 0.49ZM197.62 0.49L197.62 0.49Q196.76 0.49 195.59-0.01 194.42-0.51 193.31-1.35 192.2-2.2 191.46-3.2 190.73-4.2 190.73-5.18L190.73-5.18Q190.73-5.52 190.78-5.76 190.83-6.01 191.04-6.59 191.24-7.18 191.71-8.46 192.17-9.74 193.03-12.13L193.03-12.13 189.83-24.85Q190.56-25.76 191.82-26.56 193.08-27.37 194.6-27.88 196.13-28.39 197.64-28.39L197.64-28.39Q198.76-28.39 199.79-28.06 200.82-27.73 201.67-26.98L201.67-26.98Q201.6-26.61 201.45-25.24 201.3-23.88 201.08-21.9 200.86-19.92 200.58-17.68 200.3-15.43 199.95-13.31 199.59-11.18 199.2-9.57L199.2-9.57 198.74-7.67 202.4-9.3 204.33-6.25Q203.82-5.05 202.85-3.47 201.89-1.88 200.56-0.7 199.23 0.49 197.62 0.49ZM196.57-30.44L196.57-30.44Q195.4-30.52 194.26-31.09 193.12-31.67 192.31-32.46 191.49-33.25 191.27-33.98L191.27-33.98Q191.98-35.72 192.42-36.83 192.86-37.94 193.21-38.88 193.56-39.82 193.93-41.04L193.93-41.04Q195.44-41.04 197.19-40.58 198.94-40.11 200.33-38.96 201.72-37.82 202.16-35.74L202.16-35.74Q201.45-34.06 199.77-32.58 198.08-31.1 196.57-30.44ZM215.44 0.49L215.44 0.49Q214.31 0.49 212.93-0.07 211.55-0.63 210.29-1.56 209.02-2.49 208.19-3.61 207.36-4.74 207.31-5.86L207.31-5.86Q207.31-6.18 207.42-6.77 207.53-7.37 207.87-8.63 208.21-9.89 208.89-12.11L208.89-12.11 207.67-20.85 205.33-21Q204.96-22 204.88-23.32 204.79-24.63 204.84-25.32L204.84-25.32 207.58-26.27 209.06-35.13Q209.65-35.45 210.96-35.56 212.26-35.67 213.79-35.46 215.31-35.25 216.49-34.62L216.49-34.62 216.22-27.76 221.64-28.86Q222.64-27.17 222.66-25.61 222.69-24.05 222.31-22.81 221.93-21.58 221.66-20.87L221.66-20.87Q220.54-20.78 218.96-20.68 217.39-20.58 215.97-20.53L215.97-20.53 216.02-7.62 221.3-11.96 224.4-8.52Q224.05-7.62 223.08-6.13 222.1-4.64 220.77-3.11 219.44-1.59 218.04-0.55 216.63 0.49 215.44 0.49ZM240.95 10.69L240.95 10.69Q239.12 10.67 237.2 10 235.28 9.33 233.79 8.41 232.3 7.5 231.77 6.79L231.77 6.79Q231.67 5.4 231.86 4.36 232.06 3.32 232.38 2.59L232.38 2.59Q233.57 2.86 235.42 3.13 237.26 3.39 239.09 3.58 240.92 3.76 242.05 3.76L242.05 3.76Q242.17 1.39 242.07-1.65 241.97-4.69 241.86-7.69 241.75-10.69 241.78-12.99L241.78-12.99 241.53-13.06Q241.02-11.77 240.12-9.89 239.21-8.01 238.1-6.04 236.99-4.08 235.89-2.48 234.79-0.88 233.92-0.12L233.92-0.12Q233.21 0.46 232.55 0.49L232.55 0.49Q231.89 0.51 231.11 0.13 230.33-0.24 229.62-0.76L229.62-0.76Q229.03-1.2 228.23-1.68 227.42-2.17 226.82-2.75 226.23-3.32 226.23-3.96L226.23-3.96 228.28-13.99 224.49-24.51Q225.18-26.22 226.65-27.22 228.13-28.22 229.89-28.66 231.65-29.1 233.2-29.06 234.75-29.03 235.55-28.66L235.55-28.66Q235.8-26.2 235.81-23.27 235.82-20.34 235.65-17.41L235.65-17.41Q235.53-15.19 235.28-13.28 235.04-11.38 234.55-9.16L234.55-9.16 235.28-8.81Q235.97-9.47 236.78-10.73 237.6-11.99 238.38-13.42 239.16-14.84 239.74-16.1 240.31-17.36 240.48-18.04L240.48-18.04Q240.19-21.53 240.04-23.61 239.9-25.68 239.84-26.73 239.77-27.78 239.77-28.17L239.77-28.17Q240.17-28.44 241.31-28.65 242.46-28.86 243.88-28.86L243.88-28.86Q248.15-28.86 250.64-25.9L250.64-25.9Q250.64-25 250.09-23.02 249.54-21.04 247.78-17.85L247.78-17.85 251.15 1.51Q250.64 3.54 249.28 5.35 247.93 7.15 246.04 8.52 244.15 9.89 242 10.62L242 10.62Q241.48 10.69 240.95 10.69ZM271.7 0.49L271.7 0.49Q270.9 0.49 269.91 0.01 268.92-0.46 267.98-1.11 267.04-1.76 266.33-2.33 265.62-2.91 265.38-3.1L265.38-3.1Q264.35-3.98 264.16-4.55 263.96-5.13 264.11-5.82 264.26-6.52 264.26-7.79L264.26-7.79Q264.26-10.06 264.09-12.65 263.92-15.23 263.6-17.53 263.28-19.82 262.79-21.22L262.79-21.22Q262.62-21.73 262.51-22.09 262.4-22.46 262.4-22.71L262.4-22.71Q262.4-23.41 263.23-24.3 264.06-25.2 265.1-25.99 266.14-26.78 266.77-27.15L266.77-27.15Q267.41-27.54 268.48-28.06 269.56-28.59 270.68-28.99 271.8-29.39 272.56-29.39L272.56-29.39Q273.29-29.39 274.38-28.92 275.46-28.44 276.51-27.88 277.56-27.32 278.17-27.03L278.17-27.03 282.71-25.85Q283.03-23.73 282.58-21.9 282.13-20.07 281.3-18.68 280.47-17.29 279.61-16.44 278.76-15.6 278.3-15.45L278.3-15.45Q276.44-16.55 275.08-18.36 273.73-20.17 272.58-21.7L272.58-21.7Q272.78-19.95 272.79-17.38 272.8-14.82 272.61-12.15 272.41-9.47 271.95-7.32L271.95-7.32 272.41-6.93Q273-7.18 274.32-7.82 275.63-8.47 277.22-9.28 278.81-10.08 280.18-10.82L280.18-10.82 282.64-7.08Q282.2-6.3 281.01-5.04 279.81-3.78 278.19-2.51 276.56-1.25 274.85-0.38 273.14 0.49 271.7 0.49ZM297.31 0.49L297.31 0.49Q296.09 0.37 294.5 0.01 292.92-0.34 291.32-0.87 289.72-1.39 288.4-2.03 287.08-2.66 286.42-3.32L286.42-3.32Q285.54-8.91 285.04-14.21 284.54-19.51 285.3-24.56L285.3-24.56Q285.84-25.24 287.23-26.03 288.62-26.81 290.35-27.53 292.09-28.25 293.67-28.76 295.26-29.27 296.19-29.39L296.19-29.39Q298.24-29.2 300.55-28.43 302.85-27.66 304.86-26.53 306.86-25.39 307.93-24.1L307.93-24.1Q308.18-23 308.25-21.79 308.32-20.58 308.32-18.53L308.32-18.53Q308.32-16.11 308.03-13.28 307.74-10.45 307.3-7.93 306.86-5.42 306.44-3.91L306.44-3.91Q305.98-3.37 304.73-2.59 303.49-1.81 302.44-1.27L302.44-1.27Q300.88-0.49 299.69-0.06 298.51 0.37 297.31 0.49ZM297.85-5.37L297.85-5.37 299.19-6.3Q299.31-7.64 299.35-9 299.39-10.35 299.39-11.72L299.39-11.72Q299.39-13.57 299.29-15.5 299.19-17.43 298.97-19.53L298.97-19.53 295.21-21.07 293.75-20.36Q293.45-17.43 293.45-14.48L293.45-14.48Q293.45-12.67 293.54-10.83 293.62-8.98 293.8-7.13L293.8-7.13Q294.55-6.64 295.57-6.14 296.58-5.64 297.85-5.37ZM318.52 0.49L318.52 0.49Q316.96 0.49 315.14-0.04 313.32-0.56 312.4-1.61L312.4-1.61Q312.74-3.59 313.01-4.86 313.28-6.13 313.53-7.07 313.79-8.01 314.11-8.98L314.11-8.98Q313.74-9.84 313.26-11.62 312.79-13.4 312.29-15.6 311.79-17.8 311.36-19.92 310.93-22.05 310.68-23.63 310.42-25.22 310.42-25.73L310.42-25.73Q310.42-25.78 310.43-25.83 310.44-25.88 310.44-25.9L310.44-25.9Q311.03-26.88 312.26-27.53 313.5-28.17 314.97-28.49 316.45-28.81 317.77-28.81L317.77-28.81Q318.92-28.81 319.83-28.61 320.75-28.42 321.31-27.91L321.31-27.91 319.53-12.62 319.92-12.55Q321.14-16.55 322.1-20.56 323.07-24.56 324.7-28.44L324.7-28.44Q325.41-28.66 326.24-28.74 327.07-28.81 327.95-28.81L327.95-28.81Q330.32-28.81 332.59-28.05 334.86-27.29 336.52-25.34L336.52-25.34Q336.52-23.78 336.21-21.59 335.91-19.41 335.37-16.94 334.83-14.48 334.11-12.05 333.39-9.62 332.56-7.59L332.56-7.59 336.71-9.77 338.89-6.81Q338.37-5.25 337.32-3.55 336.27-1.86 334.93-0.68 333.59 0.49 332.17 0.49L332.17 0.49Q331.02 0.49 329.73-0.16 328.44-0.81 327.53-1.76L327.53-1.76Q326.68-2.66 326.34-3.44 326-4.22 326.04-5.4L326.04-5.4 326.65-18.85 325.95-19.07Q324.75-16.46 323.58-13.96 322.41-11.47 321.04-8.79L321.04-8.79Q321.65-7.01 322.15-5.04 322.65-3.08 323.09-0.59L323.09-0.59Q322.26 0 321.11 0.24 319.97 0.49 318.52 0.49ZM347.62 0.49L347.62 0.49Q346.06 0.49 344.24-0.04 342.42-0.56 341.5-1.61L341.5-1.61Q341.84-3.59 342.11-4.86 342.37-6.13 342.63-7.07 342.89-8.01 343.2-8.98L343.2-8.98Q342.84-9.84 342.36-11.62 341.89-13.4 341.39-15.6 340.89-17.8 340.46-19.92 340.03-22.05 339.77-23.63 339.52-25.22 339.52-25.73L339.52-25.73Q339.52-25.78 339.53-25.83 339.54-25.88 339.54-25.9L339.54-25.9Q340.13-26.88 341.36-27.53 342.59-28.17 344.07-28.49 345.55-28.81 346.87-28.81L346.87-28.81Q348.01-28.81 348.93-28.61 349.85-28.42 350.41-27.91L350.41-27.91 348.62-12.62 349.02-12.55Q350.24-16.55 351.2-20.56 352.16-24.56 353.8-28.44L353.8-28.44Q354.51-28.66 355.34-28.74 356.17-28.81 357.05-28.81L357.05-28.81Q359.42-28.81 361.69-28.05 363.96-27.29 365.62-25.34L365.62-25.34Q365.62-23.78 365.31-21.59 365.01-19.41 364.47-16.94 363.93-14.48 363.21-12.05 362.49-9.62 361.66-7.59L361.66-7.59 365.81-9.77 367.99-6.81Q367.47-5.25 366.42-3.55 365.37-1.86 364.03-0.68 362.69 0.49 361.27 0.49L361.27 0.49Q360.12 0.49 358.83-0.16 357.54-0.81 356.63-1.76L356.63-1.76Q355.78-2.66 355.44-3.44 355.09-4.22 355.14-5.4L355.14-5.4 355.75-18.85 355.05-19.07Q353.85-16.46 352.68-13.96 351.51-11.47 350.14-8.79L350.14-8.79Q350.75-7.01 351.25-5.04 351.75-3.08 352.19-0.59L352.19-0.59Q351.36 0 350.21 0.24 349.06 0.49 347.62 0.49ZM377.06 0.49L377.06 0.49Q376.45 0.49 375.84 0.17 375.23-0.15 374.48-0.93L374.48-0.93Q374.23-1.17 374-1.4 373.77-1.64 373.52-1.83L373.52-1.83Q373.01-2.29 372.6-2.61 372.18-2.93 371.99-3.1L371.99-3.1Q370.99-4 370.78-4.69 370.57-5.37 370.7-6.18 370.84-6.98 370.84-8.25L370.84-8.25Q370.84-10.67 370.61-13.27 370.38-15.87 370.03-18.01 369.69-20.14 369.37-21.19L369.37-21.19Q369.08-22.19 369.08-22.51L369.08-22.51Q369.08-23.24 369.89-24.16 370.69-25.07 371.72-25.88 372.74-26.68 373.35-27.08L373.35-27.08Q374.09-27.54 375.22-28.08 376.36-28.61 377.55-29 378.75-29.39 379.63-29.39L379.63-29.39Q379.97-29.37 380.43-29.22 380.9-29.08 381.53-28.66L381.53-28.66Q383.49-27.37 384.72-26.71 385.95-26.05 386.95-25.67 387.95-25.29 389.15-24.85L389.15-24.85Q389.52-24.71 389.69-24.46 389.86-24.22 390.03-23.1L390.03-23.1Q390.22-21.9 390.15-20.51 390.08-19.12 389.66-18.31L389.66-18.31Q389.52-18.04 388.43-16.81 387.34-15.58 385.71-13.83 384.07-12.08 382.25-10.24 380.43-8.4 378.8-6.93L378.8-6.93 379.51-6.93Q380.75-7.18 382.92-8.37 385.1-9.57 387.47-10.69L387.47-10.69 389.54-7.3Q388.81-6.32 387.39-5 385.98-3.69 384.19-2.43 382.41-1.17 380.56-0.34 378.7 0.49 377.06 0.49ZM378.36-10.18L378.36-10.18Q378.92-11.01 379.91-12.43 380.9-13.84 381.94-15.54 382.97-17.24 383.68-18.9L383.68-18.9Q382.36-19.19 378.94-20.29L378.94-20.29Q378.94-19.78 378.91-18.52 378.87-17.26 378.79-15.69 378.7-14.11 378.6-12.65 378.51-11.18 378.38-10.25L378.38-10.25Q378.38-10.23 378.37-10.22 378.36-10.21 378.36-10.18ZM401.5 0.49L401.5 0.49Q400.69 0.49 399.71 0.01 398.72-0.46 397.78-1.11 396.84-1.76 396.13-2.33 395.42-2.91 395.18-3.1L395.18-3.1Q394.15-3.98 393.96-4.55 393.76-5.13 393.91-5.82 394.05-6.52 394.05-7.79L394.05-7.79Q394.05-10.06 393.88-12.65 393.71-15.23 393.4-17.53 393.08-19.82 392.59-21.22L392.59-21.22Q392.42-21.73 392.31-22.09 392.2-22.46 392.2-22.71L392.2-22.71Q392.2-23.41 393.03-24.3 393.86-25.2 394.9-25.99 395.93-26.78 396.57-27.15L396.57-27.15Q397.2-27.54 398.28-28.06 399.35-28.59 400.48-28.99 401.6-29.39 402.36-29.39L402.36-29.39Q403.09-29.39 404.17-28.92 405.26-28.44 406.31-27.88 407.36-27.32 407.97-27.03L407.97-27.03 412.51-25.85Q412.83-23.73 412.38-21.9 411.93-20.07 411.1-18.68 410.27-17.29 409.41-16.44 408.56-15.6 408.09-15.45L408.09-15.45Q406.24-16.55 404.88-18.36 403.53-20.17 402.38-21.7L402.38-21.7Q402.57-19.95 402.59-17.38 402.6-14.82 402.4-12.15 402.21-9.47 401.74-7.32L401.74-7.32 402.21-6.93Q402.79-7.18 404.11-7.82 405.43-8.47 407.02-9.28 408.61-10.08 409.97-10.82L409.97-10.82 412.44-7.08Q412-6.3 410.8-5.04 409.61-3.78 407.98-2.51 406.36-1.25 404.65-0.38 402.94 0.49 401.5 0.49ZM424.35 0.49L424.35 0.49Q423.23 0.49 421.85-0.07 420.47-0.63 419.2-1.56 417.93-2.49 417.1-3.61 416.27-4.74 416.22-5.86L416.22-5.86Q416.22-6.18 416.33-6.77 416.44-7.37 416.78-8.63 417.12-9.89 417.81-12.11L417.81-12.11 416.59-20.85 414.24-21Q413.88-22 413.79-23.32 413.71-24.63 413.75-25.32L413.75-25.32 416.49-26.27 417.98-35.13Q418.56-35.45 419.87-35.56 421.18-35.67 422.7-35.46 424.23-35.25 425.4-34.62L425.4-34.62 425.13-27.76 430.55-28.86Q431.55-27.17 431.58-25.61 431.6-24.05 431.22-22.81 430.84-21.58 430.58-20.87L430.58-20.87Q429.45-20.78 427.88-20.68 426.3-20.58 424.89-20.53L424.89-20.53 424.94-7.62 430.21-11.96 433.31-8.52Q432.97-7.62 431.99-6.13 431.01-4.64 429.68-3.11 428.35-1.59 426.95-0.55 425.55 0.49 424.35 0.49Z" opacity="1" transform="matrix(1,0,0,1,0,0)" fill="#000000" class="wordmark-text-0" data-fill-palette-color="primary" id="text-0"></path></svg></g></svg></g></svg></g></svg></g><g transform="matrix(1,0,0,1,69.98271182829097,0)"><svg viewBox="0 0 52.03457634341807 31.75735306410619" height="31.75735306410619" width="52.03457634341807"><g><svg xmlns="http://www.w3.org/2000/svg" xmlns:xlink="http://www.w3.org/1999/xlink" version="1.1" x="0" y="0" viewBox="0 0 47.166 28.786" style="enable-background:new 0 0 47.166 28.786;" xml:space="preserve" id="icon-0" width="52.03457634341807" height="31.75735306410619" class="icon-icon-0" data-fill-palette-color="accent"><path d="M42.457 13.188H46.678L41.642 8.152V1.658H38.528V5.038L33.49 0 20.303 13.188H24.523V26.374H11.302V18.959C11.403 18.971 11.5 18.99 11.604 18.99A3.01 3.01 0 0 0 14.543 16.628C14.978 16.877 15.476 17.03 16.013 17.03A2.977 2.977 0 1 0 16.013 11.077C15.825 11.077 15.644 11.1 15.464 11.132 15.491 10.941 15.524 10.75 15.524 10.549A4.22 4.22 0 0 0 12.987 6.683C13.009 6.517 13.037 6.352 13.037 6.179A3.615 3.615 0 0 0 9.421 2.563 3.616 3.616 0 0 0 5.804 6.179C5.804 6.765 5.957 7.312 6.204 7.801A2.22 2.22 0 0 0 4.372 9.984C4.372 10.315 4.448 10.624 4.577 10.906A3.6 3.6 0 0 0 2.111 14.317 3.617 3.617 0 0 0 5.728 17.935C6.927 17.935 7.98 17.345 8.639 16.448 8.753 17.167 9.119 17.795 9.646 18.25V26.374H0V28.786H47.166V26.374H42.456zM36.606 26.275H30.376V20.044H36.606z" fill="#000000" data-fill-palette-color="accent"></path></svg></g></svg></g><g></g></svg></g></svg></g></svg></g><defs></defs></svg><rect width="320" height="360" fill="none" stroke="none" visibility="hidden"></rect></g></svg></g></svg>